<?xml version="1.0" encoding="utf-8"?>
<!-- Generator: Adobe Illustrator 21.1.0, SVG Export Plug-In . SVG Version: 6.00 Build 0)  -->
<svg version="1.1" id="Layer_1" xmlns="http://www.w3.org/2000/svg" xmlns:xlink="http://www.w3.org/1999/xlink" x="0px" y="0px"
	 width="85px" height="48.8px" viewBox="0 0 85 48.8" style="enable-background:new 0 0 85 48.8;" xml:space="preserve">
<style type="text/css">
	.st0{fill:#ECE9EE;}
	.st1{fill:#432957;}
</style>
<rect x="1" y="19.8" class="st0" width="83" height="28"/>
<g>
	<path class="st1" d="M22.5,10.2c-2.4,2.8-3.9,5.7-4.4,8.7c-0.3,1.6-0.4,2.9-0.4,4c0,1.3,0.1,2.3,0.4,3.2C20.7,23.4,24,22,28,22
		s7.3,1.2,9.8,3.5s3.8,5.6,3.8,9.7c0,3.9-1.3,7.1-4,9.5c-2.6,2.4-6,3.7-10,3.7c-5.6,0-9.6-2-12.2-6c-1.2-1.7-2.1-3.8-2.8-6.4
		c-0.7-2.5-1-5.1-1-7.8c0-5.8,1.5-11.2,4.5-16s7.5-8.6,13.4-11.3L31.1,4C27.8,5.3,25,7.4,22.5,10.2z M57.7,10.2
		c-2.4,2.8-3.9,5.7-4.4,8.7c-0.3,1.6-0.4,2.9-0.4,4c0,1.3,0.1,2.3,0.4,3.2c2.6-2.7,5.9-4.1,9.9-4.1s7.3,1.2,9.8,3.5s3.8,5.6,3.8,9.7
		c0,3.9-1.3,7.1-4,9.5s-6,3.7-10,3.7c-5.6,0-9.6-2-12.2-6c-1.2-1.7-2.1-3.8-2.8-6.4c-0.7-2.5-1-5.1-1-7.8c0-5.8,1.5-11.2,4.5-16
		s7.5-8.6,13.4-11.3L66.3,4C63,5.3,60.1,7.4,57.7,10.2z"/>
</g>
</svg>
