<?xml version="1.0" encoding="utf-8"?>
<!-- Generator: Adobe Illustrator 21.1.0, SVG Export Plug-In . SVG Version: 6.00 Build 0)  -->
<svg version="1.1" id="Layer_1" xmlns="http://www.w3.org/2000/svg" xmlns:xlink="http://www.w3.org/1999/xlink" x="0px" y="0px"
	 width="478.2px" height="572.4px" viewBox="0 0 478.2 572.4" style="enable-background:new 0 0 478.2 572.4;" xml:space="preserve"
	>
<style type="text/css">
	.st0{fill:#D7D7D7;}
</style>
<polygon class="st0" points="411.7,218.6 332.5,138.6 417.6,0 478.2,0 476.2,174.8 "/>
<path class="st0" d="M376,266.8l-92-92l-136.8,44.8l-88,235.2l6.4,6.4l100.8-100.8c-5.6-13.6-2.4-30.4,8.8-41.6
	c15.2-15.2,40-15.2,55.2,0c15.2,15.2,15.2,40,0,55.2c-11.2,11.2-27.2,14.4-41.6,8.8L89.6,484.4l6.4,6.4l235.2-88L376,266.8z"/>
<path class="st0" d="M176.8,319.6c15.2-15.2,40-15.2,55.2,0c15.2,15.2,15.2,40,0,55.2c-11.2,11.2-27.2,14.4-41.6,8.8L89.6,484.4
	l6.4,6.4l235.2-88L376,266l-92-91.2"/>
<polyline class="st0" points="331.2,403.6 376,266.8 284,174.8 "/>
<path class="st0" d="M417.6,271.6c-13.6,13.6-35.2,13.6-48.8,0L280,182.8c-13.6-13.6-13.6-35.2,0-48.8l0,0
	c13.6-13.6,35.2-13.6,48.8,0l88.8,88.8C431.2,235.6,431.2,258,417.6,271.6L417.6,271.6z"/>
<path class="st0" d="M417.6,271.6L417.6,271.6c-13.6,13.6-35.2,13.6-48.8,0L280,182.8c-13.6-13.6-13.6-35.2,0-48.8l0,0"/>
<g>
	<path class="st0" d="M49,572.4h-1c-26.4,0-48-20-48-46.4c0-26.4,21.6-47.2,48-47.2c6.4,0,12,5.6,12,12s-5.6,12-12,12
		c-13.6,0-24,9.6-24,22.4c0,12.8,10.4,22.4,24,22.4h1c6.4,0,12,5.6,12,12S55.4,572.4,49,572.4z"/>
	<circle class="st0" cx="57.6" cy="491.6" r="16.8"/>
</g>
</svg>
