<?xml version="1.0" encoding="utf-8"?>
<!-- Generator: Adobe Illustrator 21.1.0, SVG Export Plug-In . SVG Version: 6.00 Build 0)  -->
<svg version="1.1" id="Layer_1" xmlns="http://www.w3.org/2000/svg" xmlns:xlink="http://www.w3.org/1999/xlink" x="0px" y="0px"
	 width="85px" height="64px" viewBox="0 0 85 64" style="enable-background:new 0 0 85 64;" xml:space="preserve">
<style type="text/css">
	.st0{fill:#FFFAE5;}
	.st1{fill:#FFCC00;}
	.st2{fill:#ECE9EE;}
	.st3{fill:#432957;}
</style>
<rect x="1" y="1" class="st0" width="83" height="28"/>
<g>
	<path class="st1" d="M22.5,25.4c-2.4,2.8-3.9,5.7-4.4,8.7c-0.3,1.6-0.4,2.9-0.4,4c0,1.3,0.1,2.3,0.4,3.2c2.6-2.7,5.9-4.1,9.9-4.1
		s7.3,1.2,9.8,3.5c2.5,2.3,3.8,5.6,3.8,9.7c0,3.9-1.3,7.1-4,9.5c-2.6,2.4-6,3.7-10,3.7c-5.6,0-9.6-2-12.2-6
		c-1.2-1.7-2.1-3.8-2.8-6.4c-0.7-2.5-1-5.1-1-7.8c0-5.8,1.5-11.2,4.5-16s7.5-8.6,13.4-11.3l1.6,3.1C27.8,20.5,25,22.6,22.5,25.4z
		 M57.7,25.4c-2.4,2.8-3.9,5.7-4.4,8.7c-0.3,1.6-0.4,2.9-0.4,4c0,1.3,0.1,2.3,0.4,3.2c2.6-2.7,5.9-4.1,9.9-4.1s7.3,1.2,9.8,3.5
		c2.5,2.3,3.8,5.6,3.8,9.7c0,3.9-1.3,7.1-4,9.5s-6,3.7-10,3.7c-5.6,0-9.6-2-12.2-6c-1.2-1.7-2.1-3.8-2.8-6.4c-0.7-2.5-1-5.1-1-7.8
		c0-5.8,1.5-11.2,4.5-16c3-4.8,7.5-8.6,13.4-11.3l1.6,3.1C63,20.5,60.1,22.6,57.7,25.4z"/>
</g>
</svg>
