<svg id="Layer_1" data-name="Layer 1" xmlns="http://www.w3.org/2000/svg" viewBox="0 0 51 49.58"><defs><style>.cls-1{fill:#333;}</style></defs><title>Social</title><path class="cls-1" d="M34.8,1.79H16.2A13.72,13.72,0,0,0,2.5,15.49V34.09a13.72,13.72,0,0,0,13.7,13.7H34.8a13.72,13.72,0,0,0,13.7-13.7V15.49A13.72,13.72,0,0,0,34.8,1.79Zm9.08,32.3a9.08,9.08,0,0,1-9.08,9.08H16.2a9.08,9.08,0,0,1-9.08-9.08V15.49A9.08,9.08,0,0,1,16.2,6.42H34.8a9.08,9.08,0,0,1,9.08,9.08V34.09Z"/><path class="cls-1" d="M25.5,12.89a11.9,11.9,0,1,0,11.9,11.9A11.91,11.91,0,0,0,25.5,12.89Zm0,19.17a7.27,7.27,0,1,1,7.27-7.27A7.27,7.27,0,0,1,25.5,32.06Z"/><circle class="cls-1" cx="37.42" cy="12.98" r="2.85"/></svg>