<svg xmlns="http://www.w3.org/2000/svg" width="13" height="10"><defs><filter id="a" x="316" y="27" width="13" height="10" filterUnits="userSpaceOnUse"><feFlood result="flood" flood-color="#035998"/><feComposite result="composite" operator="in" in2="SourceGraphic"/><feBlend result="blend" in2="SourceGraphic"/></filter></defs><path d="M322 27h6a1 1 0 1 1 0 2h-6a1 1 0 1 1 0-2zm6 4h-9a1 1 0 1 0 0 2h9a1 1 0 1 0 0-2zm-11 4h11a1 1 0 0 1 0 2h-11a1 1 0 0 1 0-2z" transform="translate(-316 -27)" fill="#f0f1f4" fill-rule="evenodd" filter="url(#a)"/></svg>