<svg id="Layer_1" data-name="Layer 1" xmlns="http://www.w3.org/2000/svg" viewBox="0 0 92 94.76"><defs><style>.cls-1{fill:url(#linear-gradient)}.cls-2{fill:#fff}</style><linearGradient id="linear-gradient" x1=".69" y1="47.13" x2="90.44" y2="47.13" gradientUnits="userSpaceOnUse"><stop offset="0" stop-color="#e09b3d"/><stop offset=".3" stop-color="#c74c4d"/><stop offset=".6" stop-color="#c21975"/><stop offset="1" stop-color="#7024c4"/></linearGradient></defs><title>Social_Color</title><path class="cls-1" d="M90.44 47.13A44.88 44.88 0 1 1 45.56 2.25a44.88 44.88 0 0 1 44.88 44.88zm0 0"/><path class="cls-2" d="M57.54 17.51H33.59a17.67 17.67 0 0 0-17.65 17.65V59.1a17.67 17.67 0 0 0 17.65 17.65h23.95A17.67 17.67 0 0 0 75.19 59.1V35.16a17.67 17.67 0 0 0-17.65-17.65zM69.23 59.1a11.69 11.69 0 0 1-11.69 11.69H33.59A11.69 11.69 0 0 1 21.9 59.1V35.16a11.69 11.69 0 0 1 11.69-11.69h23.95a11.69 11.69 0 0 1 11.69 11.69V59.1z"/><path class="cls-2" d="M45.56 31.81a15.32 15.32 0 1 0 15.33 15.32 15.34 15.34 0 0 0-15.33-15.32zm0 24.68a9.36 9.36 0 1 1 9.36-9.36 9.36 9.36 0 0 1-9.36 9.36z"/><circle class="cls-2" cx="60.92" cy="31.92" r="3.67"/></svg>