<svg id="Layer_1" data-name="Layer 1" xmlns="http://www.w3.org/2000/svg" viewBox="0 0 92 94.76"><defs><style>.cls-1{fill:#55acee}.cls-2{fill:#f1f2f2}</style></defs><title>Social_Color</title><path class="cls-1" d="M90.76 48.38A44.88 44.88 0 1 1 45.88 3.5a44.88 44.88 0 0 1 44.88 44.88zm0 0"/><path class="cls-2" d="M73.37 35.75a21.43 21.43 0 0 1-6.16 1.69 10.79 10.79 0 0 0 4.72-5.93 21.56 21.56 0 0 1-6.81 2.6 10.74 10.74 0 0 0-18.28 9.78 30.45 30.45 0 0 1-22.12-11.21A10.74 10.74 0 0 0 28 47a10.67 10.67 0 0 1-4.86-1.34v.14a10.73 10.73 0 0 0 8.61 10.52 10.72 10.72 0 0 1-4.84.19A10.74 10.74 0 0 0 37 64a21.71 21.71 0 0 1-15.88 4.44 30.36 30.36 0 0 0 16.44 4.82C57.25 73.21 68 56.87 68 42.69V41.3a21.77 21.77 0 0 0 5.35-5.55zm0 0"/></svg>