<svg id="Layer_1" data-name="Layer 1" xmlns="http://www.w3.org/2000/svg" viewBox="0 0 289.8 256.88"><defs><style>.cls-1{fill:#231f20}.cls-2{fill:#0072bc;fill-rule:evenodd}</style></defs><title>Deccan_Herald_Masthead</title><path class="cls-1" d="M172.94 218.38c-.06-.52-.07-.62-.21-.62a.13.13 0 0 0-.1 0 .28.28 0 0 0-.06.17 3.89 3.89 0 0 1-.8 1.69 4.85 4.85 0 0 1-3.88 2h-47.47a4.85 4.85 0 0 1-4.38-2.78 4.27 4.27 0 0 1-.3-.89c0-.05 0-.2-.15-.2s-.17.1-.21.62v.77a5.11 5.11 0 0 0 5.1 5.1h47.45a5.11 5.11 0 0 0 5.1-5.1c-.03-.14-.03-.51-.09-.76zm-42.63-28.32c.08-.13.15-.27.22-.4l.07-.14a1.35 1.35 0 0 1 .24-.36.89.89 0 0 0 .39 0 .1.1 0 0 0 .06-.12.11.11 0 0 0-.1-.09.81.81 0 0 1-.29-.08l-.27-.13-.35-.16-.34-.12a2.92 2.92 0 0 0-.75-.13 2.59 2.59 0 0 0-.77.09 1.86 1.86 0 0 0-.72.36 2.35 2.35 0 0 0-.51.58 3.4 3.4 0 0 0-.49 1.37.11.11 0 0 0 .07.12.11.11 0 0 0 .09-.06l.15-.28a2.46 2.46 0 0 0 1 .47 2.41 2.41 0 0 0 .54.06 2.18 2.18 0 0 0 .75-.13 2 2 0 0 0 .58-.33 2.09 2.09 0 0 0 .43-.52zm-1.18.39a2.2 2.2 0 0 1-1.06.11 2.92 2.92 0 0 1-.9-.3 5.34 5.34 0 0 1 .32-.47.91.91 0 1 0 1.58-.86 3 3 0 0 1 .73 0l.49.1h.17a1.89 1.89 0 0 0-.2.23l-.16.22-.19.26a1.77 1.77 0 0 1-.78.71zm26.95 13.03a1.47 1.47 0 0 1 .73-1.25 7 7 0 0 0-.71-.48 1 1 0 0 0 0 1.73zm1.1.9a1.45 1.45 0 0 1 .77-1c-.18-.2-.41-.45-.59-.63l-.12-.11a1 1 0 0 0-.65.91 1 1 0 0 0 .59.83zm.9 1.04a1.45 1.45 0 0 1 .77-1.1l-.54-.6a1 1 0 0 0-.65.9 1 1 0 0 0 .42.8zm1.05 1.07a1.46 1.46 0 0 1 .69-1.15l-.61-.62a1 1 0 0 0-.08 1.78zm1.05.95a1.46 1.46 0 0 1 .66-1.15l-.31-.28-.34-.31a1 1 0 0 0 0 1.74zm1.25 1.01a1.53 1.53 0 0 1 0-.33 1.46 1.46 0 0 1 .46-1.06c-.2-.13-.4-.28-.59-.43a1 1 0 0 0 .17 1.81zm1.26.62a1.34 1.34 0 0 1 0-.22 1.47 1.47 0 0 1 0-.24 1.45 1.45 0 0 1 .31-.89c-.2-.1-.41-.21-.61-.33a1 1 0 0 0 .4 1.72zm1.38.46h.16a1.45 1.45 0 0 1-.23-.79 1.42 1.42 0 0 1 .12-.57 7.49 7.49 0 0 1-.73-.26 1 1 0 0 0 .68 1.63zm1.39.16h.1a1.45 1.45 0 0 1-.36-1 1.39 1.39 0 0 1 0-.34 5.8 5.8 0 0 1-.64-.1.94.94 0 0 0-.11.44 1 1 0 0 0 1.01 1zm1.21 0a1 1 0 0 0 .6-.21 1.45 1.45 0 0 1-.83-1.11 5.42 5.42 0 0 1-.68 0 .9.9 0 0 0-.06.31 1 1 0 0 0 .97 1.01zm1.13-.61a.92.92 0 0 0 .88-1 1 1 0 0 0-.11-.45 6.45 6.45 0 0 1-1.64.61.9.9 0 0 0 .87.84z"/><path class="cls-1" d="M120 220.3a4.91 4.91 0 0 0 1.36.21h.26a7.42 7.42 0 0 0 2-.3 4.76 4.76 0 0 1 .55-.13 8.18 8.18 0 0 1 1.8 0l.87.11c1.72.19 4 .33 5.39.33h.61a5.2 5.2 0 0 0 2.94-.85h.06a10.05 10.05 0 0 0 3.57.81h1.83A55.84 55.84 0 0 0 149 220a67.68 67.68 0 0 0 10.78.67c3.12 0 5.54-.1 6-.15h.23c.89-.09 3-.31 3.78-2.17a2.59 2.59 0 0 0-.11-2.3l-.07-.12c1.46-1.64 1.67-4.7 1.14-6.75a8.68 8.68 0 0 0-1.21-2.64 22.56 22.56 0 0 0-1.59-3.41c-1.07-2-3.16-3.38-6-4a18.12 18.12 0 0 0-3.81-.4 15.37 15.37 0 0 0-2.22.15l-.69.12c-1.37.24-3.93.68-4.84.7a.76.76 0 0 1-.57-.28 2.53 2.53 0 0 1-.16-1.75v-.07a3 3 0 0 0-1-3 2.43 2.43 0 0 0-1.66-.6 9.1 9.1 0 0 0-1.77.23l-.49.11a7.42 7.42 0 0 1-1.62.25 2.81 2.81 0 0 1-.88-.13 2 2 0 0 1-.33-.15 25.51 25.51 0 0 1-3.91-3.51 5.94 5.94 0 0 0 .35-.76l.26-.64a11.9 11.9 0 0 1 .61-1.06.32.32 0 0 0 0-.24.31.31 0 0 0-.15-.19 3.91 3.91 0 0 0-1.81-.46h-.09l.05-.08a18.13 18.13 0 0 0 1.49-3 .31.31 0 0 0-.29-.42c-3.3.12-4.64.85-5.14 1.27a2.1 2.1 0 0 0-1.35-.5 2.5 2.5 0 0 0-.64.09 2.3 2.3 0 0 0-1.46 1.3 4.68 4.68 0 0 0-2.74 2 13.92 13.92 0 0 1-4.08 3.69c-.18.11-.3.19-.38.25-1 .78-1.85 1.88-.68 4.11.86 1.64 2.91 2.22 4.54 2.22a7 7 0 0 0 1.32-.12 1.93 1.93 0 0 1 .32 1.82 7.37 7.37 0 0 1-.43.92l-.14.27a2.75 2.75 0 0 0-.38 2.48 2.61 2.61 0 0 0-1.23 1.62 2.53 2.53 0 0 0 .07 1.2v.07a.22.22 0 0 1 0 .17c-.07.09-.22.11-.45.05h-.16l-.24-.06a5.17 5.17 0 0 0-1.36-.24 2.54 2.54 0 0 0-1 .18c-.92.37-2.23 1.4-3.25 4.27a2.81 2.81 0 0 0-.24 2.08c.09.2.14.52-.55.91a1.13 1.13 0 0 0-.55.91 1.11 1.11 0 0 0 .16.65.41.41 0 0 1 0 .48 4.12 4.12 0 0 0-.39.76 6.13 6.13 0 0 0-.31 1v.05c-.12.85.72 1.98 2.32 2.45zm5.59-1.52c-1.16.18-1.89-.3-1.78-1s.24-1.57.32-1.9a1.24 1.24 0 0 1 .55-.91 1.64 1.64 0 0 1 1.77.29 6.87 6.87 0 0 1 1.38 1.49c.99 1.48-.83 1.83-2.21 2.03zm24.55-4.78a1.14 1.14 0 0 1-2.27-.24c0-.24.08-.46.2-1.14a1 1 0 0 1 1.15-.82 1 1 0 0 1 1.06.95 12.25 12.25 0 0 1-.14 1.25zm2.66 5c-1.08-.09-1.51-.35-1.42-1.11.13-1 1.58-.25 1.71-.61s-.56-.3-1.1-.53-.5-1 .57-1.48a2.5 2.5 0 0 1 2.41.33c.48.32 0 .44 0 .44a3 3 0 0 0-2 2.85c.03.11-.07.11-.17.11zm4.79.61a.49.49 0 0 1-.19.08 5 5 0 0 1-1.74 0 .21.21 0 0 1-.19-.17 3.17 3.17 0 0 1 .4-1.54c.22-.34-.21-.72-.53-.23a3.47 3.47 0 0 0-.58 1.68.13.13 0 0 1-.15.11 1.65 1.65 0 0 1-.95-.39.26.26 0 0 1-.08-.26 2.54 2.54 0 0 1 1.78-2.25.21.21 0 0 1 .25.06 3.73 3.73 0 0 0 2.45.79c.17 0 .46.09.41.27a2.92 2.92 0 0 1-.88 1.86zm1.21-2.71a2.27 2.27 0 0 0-1.14-.29c-1.49-.11-1.67-1-1.68-1.44a1.59 1.59 0 0 1 .79-1.33 1.81 1.81 0 0 0 .47.72c-.12.08-.41.31-.4.59s0 .54.88.6a2.83 2.83 0 0 1 1.74.59 1.07 1.07 0 0 0-.66.57zm2.65 2.12c-.68 0-2.34.1-2.21-1.45 0-.52.47-.84 1.09-.93a4.66 4.66 0 0 1 1.71.24 5.21 5.21 0 0 1 2.58 2.14s-2.49-.02-3.17-.02zm-2.9-19.71c.35 0 .73 0 1.12.07 2.28.2 4.93.88 6.64 2.61a5.65 5.65 0 0 1 .62.76c.14.2.58.91.65 1.06s.3.57.43.85l-.1.1a3.71 3.71 0 0 1-2.17.83 5.16 5.16 0 0 1-3.25-1.64 27.17 27.17 0 0 1-2.1-2.17c-.37-.42-.7-.78-1-1.07a9.29 9.29 0 0 0-1.79-1.37zm-3.86.42c.5-.1.94-.18 1.33-.24a9 9 0 0 1 2.72 1.8c.27.27.59.62 1 1a28.62 28.62 0 0 0 2.17 2.23 6 6 0 0 0 3.85 1.88 4.51 4.51 0 0 0 2.66-1l.29.64a5.13 5.13 0 0 1-3 1 6.58 6.58 0 0 1-4.31-2.06 28.58 28.58 0 0 1-2.22-2.28c-.36-.4-.67-.74-.93-1a8.71 8.71 0 0 0-3.56-2zm-3.16.8h.12l.6-.16a3.76 3.76 0 0 1 1.44 0c.38.08.67.18 1 .27a7.85 7.85 0 0 1 3 1.75c.24.24.54.57.89 1a30 30 0 0 0 2.28 2.34 7.61 7.61 0 0 0 4.89 2.29 5.9 5.9 0 0 0 3.3-1.08 9.21 9.21 0 0 1 1 2.35c.5 1.9.28 4.55-.86 6a2 2 0 0 1-2 .75c-.08 0-.09-.1 0-.14h.06a3.75 3.75 0 0 0 1.1-.9l.14-.16a4.82 4.82 0 0 0 .81-4 .36.36 0 0 0-.71.16 4.1 4.1 0 0 1-.67 3.35c-1 1.24-2.89 1.87-5.64 1.87h-.49a5.21 5.21 0 0 1-4-2 3.32 3.32 0 0 1-.66-2.65 4.24 4.24 0 0 1 2.32-2.61.36.36 0 1 0-.28-.67 5 5 0 0 0-.86.49 5 5 0 0 0-2.21 2.8c-.45 1.44-.81 3-2.8 2.62a2.4 2.4 0 0 1-2.18-2.28 32.91 32.91 0 0 0-.79-8.91 2 2 0 0 1 1.2-2.47zm-1.22 7.76a10.64 10.64 0 0 1 .1 1.67 1 1 0 0 1-1.14 1.09 1 1 0 0 1-1.07-1.05c0-.36 0-.59-.06-1.35a1.08 1.08 0 0 1 1.13-1.15 1 1 0 0 1 1.04.8zm-.76-4.58a6.52 6.52 0 0 1 .43 1.87c0 .54 0 .95-.87 1.15a1.05 1.05 0 0 1-1.33-.76c-.11-.35-.27-.81-.37-1.06a1.21 1.21 0 0 1 .59-1.74 1.16 1.16 0 0 1 1.56.56zm-7.55-8.64l.42.11a1 1 0 0 1-.14 1.28 1.08 1.08 0 0 1-1.44.12 1 1 0 0 1-1.53 1.15 1 1 0 0 1-1.61 1 .84.84 0 0 1-.49 1 1.06 1.06 0 0 1-1.2-.17.89.89 0 0 1-.61.93c-.47.18-1 .08-1.15-.17a1 1 0 0 1-.75.8 1.33 1.33 0 0 1-1.08-.17l-.54.17a.35.35 0 0 0 0 .25.46.46 0 1 1-.26.07.6.6 0 0 1 0-.26l-1 .26a.35.35 0 0 0 0 .25.56.56 0 1 1-.28.08.56.56 0 0 1 0-.3c-.38.08-.77.15-1.17.2a.34.34 0 0 0 0 .24.62.62 0 1 1-.63.62.58.58 0 0 1 0-.12v-.19l.14-.09a.61.61 0 0 1 0-.28.27.27 0 0 1-.33-.24c0-.18.1-.27.26-.32a21.71 21.71 0 0 0 4-.94 25.13 25.13 0 0 0 3.83-1.63 23.88 23.88 0 0 0 4.6-3.12c.25-.22.52-.46.77-.69zm-.89-.48a24.3 24.3 0 0 1-10.87 5.72.4.4 0 0 1-.48-.33.36.36 0 0 1 .25-.46 10 10 0 0 0 2-.74.36.36 0 1 0-.32-.65c-.35.17-.66.3-.95.41-.83.22-1.55 0-1.57-.59s1.17-.56 1.61-.65l.29-.05c1.38-.25 2.9-.55 3.71-1.72a3.41 3.41 0 0 0 .1-3 3.41 3.41 0 0 0 2.74-1.19 27.74 27.74 0 0 0 3.52 3.24zM138 184.52a9.87 9.87 0 0 1-1 1.72c-1.12 1.59-3.13 2.28-3.8 1.33-1.76-2.46 4.8-3.05 4.8-3.05zM127.6 197c-.63.07-.81-.29-.81-.29a.53.53 0 0 1 .12-.78c.18-.14.63-.51.34-.88-.52-.64-1 .12-1.09.36a2 2 0 0 1-1 1.29 1.82 1.82 0 0 1-1.88 0 3.7 3.7 0 0 1-.79-.93 2.8 2.8 0 0 1-.45-1.44 1.43 1.43 0 0 1 .81-1.4c.71-.29.82-.06 1.05-.26a.65.65 0 0 0 .15-.36c.13-.6 1.39-1.17 2.08-2.08a20.65 20.65 0 0 0 1.46-1.76 4 4 0 0 1 2.33-1.78s1.2-.17 1.72.44a2.37 2.37 0 0 1 .32 2.39c-.35.74-.11.9 0 1s.65.52 1.34-.43a5.69 5.69 0 0 1 3.18-2 4 4 0 0 1 2 .16 8.32 8.32 0 0 0-.44.8c-.13.29-.21.51-.28.68a4.94 4.94 0 0 1-.43.89 3 3 0 0 1-2.06 1.21c-.56-.06-.36-.89-.21-1.2a9.43 9.43 0 0 1 1.57-1.37c.17-.14.12-.34-.25-.13s-.75-.1-1.29.25a.74.74 0 0 0-.29.91s-.59.45-1 .76 0 .9.14 1.24a3 3 0 0 1 .29 2.85c-.56.95-1.93 1.17-3.22 1.4-.46.08-1.2-.05-1.61.05-.63.06-1.2.31-1.8.41zm.36 7a25.54 25.54 0 0 0 6-1.31c2.94-1 6.92-2.55 10-6.32l.11-.14a4.17 4.17 0 0 1 2.33-1.55 2.35 2.35 0 0 1 1.74.31 2.54 2.54 0 0 1 .67 2.8 2.3 2.3 0 0 1-2 1.39 1.56 1.56 0 0 1-1.37-.62.36.36 0 0 0-.66.26 1.79 1.79 0 0 0 1.34 1.16c.86.12.77.66.51.79a49.64 49.64 0 0 1-14.12 4.36 31.39 31.39 0 0 1-4.63.32.73.73 0 0 1-.63-.66.72.72 0 0 1 .75-.79zm16.83-1.77a.16.16 0 0 1 .3.13.41.41 0 0 0 0 .3.76.76 0 1 1-.32.06.73.73 0 0 1 .02-.48zm-1.92.65a.17.17 0 0 1 .22-.08.17.17 0 0 1 .08.22.4.4 0 0 0 0 .3.76.76 0 1 1-.32.07.74.74 0 0 1 .02-.5zm-1.82.55a.16.16 0 0 1 .3.13.4.4 0 0 0 0 .3.76.76 0 1 1-.32.06.74.74 0 0 1 .02-.48zm-1.78.59a.16.16 0 0 1 .3.13.4.4 0 0 0 0 .3.76.76 0 1 1-.32.06.75.75 0 0 1 .02-.51zm-1.83.61a.16.16 0 0 1 .3.13.4.4 0 0 0 0 .3.76.76 0 1 1-.32.06.75.75 0 0 1 .03-.49zm-2 .35a.16.16 0 0 1 .3.13.41.41 0 0 0 0 .3.76.76 0 1 1-.32.07.74.74 0 0 1 .07-.48zm-1.9.39a.16.16 0 1 1 .3.13.41.41 0 0 0 0 .3.76.76 0 1 1-.32.07.74.74 0 0 1 .08-.5zm-1.7.32a.16.16 0 0 1 .22-.08.16.16 0 0 1 .08.21.42.42 0 0 0 0 .3.75.75 0 1 1-.33.06.74.74 0 0 1 .09-.49zm-1.74.19a.16.16 0 0 1 .3.13.41.41 0 0 0 0 .3.76.76 0 1 1-.32.07.75.75 0 0 1 .07-.5zm-1.78.11a.16.16 0 0 1 .22-.08.16.16 0 0 1 .08.22.42.42 0 0 0 0 .3.76.76 0 1 1-.32.06.74.74 0 0 1 .07-.49zm-10 11.85a4.38 4.38 0 0 1 .58-1.47c.28-.44.29-.66.17-.85v-.05a1 1 0 0 1-.16-.36.39.39 0 0 1 0-.07.46.46 0 0 1 0-.08.45.45 0 0 1 .21-.36c1.13-.65 1-1.4.83-1.79s.26-1.56.26-1.56c.94-2.64 2.08-3.56 2.87-3.88 1.37-.55 3.64 1.13 3.88 1.26.78.46 2.94 1.9 3.44 2.26l1.32.93.31.21c1 .68 2 1.16 2.21.73s-1.6-1.94-2.4-2.89-.77-1.09-.75-1.44a1.25 1.25 0 0 1 .29-.66.94.94 0 0 0 1.09.44.91.91 0 0 0 .71-.57 1.1 1.1 0 0 0 1 .2.93.93 0 0 0 .72-.75 1 1 0 0 0 1.17.36.86.86 0 0 0 .75-.78 1.08 1.08 0 0 0 1.21.42.9.9 0 0 0 .68-.94 1.14 1.14 0 0 0 1.14.32.9.9 0 0 0 .72-.8 1 1 0 0 0 1.08.28 1 1 0 0 0 .73-.87 1.16 1.16 0 0 0 1.32.25 1 1 0 0 0 .56-.77 1.17 1.17 0 0 0 1.11.35 1.51 1.51 0 0 0 .81-.56c.25.36 1.89 3 1.06 8a18.48 18.48 0 0 1-.91 3.65 2.91 2.91 0 0 1-1.21 1.24c-1.24.81-4 .67-5.3.57h-.31c-2.19-.25-1.61-3.11-.95-3.84a11.23 11.23 0 0 0 1.82-2.72c.27-.83 0-1.05-.23-1s-.28.17-.46.7a8 8 0 0 1-2.63 3.2 3.68 3.68 0 0 0-1.35 1.56 4.4 4.4 0 0 0-.45 1.53 2.29 2.29 0 0 1-3.69.69c-1-1.18-.05-2.45.32-2.86.09-.1.09-.18 0-.21-1.46-.45-2 .71-2.32 1.35-.12.25-.3.4-.43.28-.64-.55.11-2 .41-2.49s.32-1.06-.86-.66a2.81 2.81 0 0 1-2.32.07 2.08 2.08 0 0 1-1.19-3 3.5 3.5 0 0 0 .25-.91c.06-.56-.42-.54-.71-.33a4 4 0 0 0-1 1.12c-.28.45-.9 1.21-1.57.84s-.93-.4-1.08-.09.23.75.84 1.28c.95.77.72 2.47-.55 2.41s-1.71-.07-1.76.42c0 .23.19.37.39.52.26.18.68.36.48 2.18-.06.59-.27 1.68-1.15 1.35l-.15-.07a.35.35 0 0 1-.2-.41 6.51 6.51 0 0 1 .42-1.43c.07-.14.15-.44 0-.53s-.39.15-.46.29a6.51 6.51 0 0 0-.38 1.15c-.07.27-.21 0-.22-.24a.65.65 0 0 1 .06-.11z"/><path class="cls-2" d="M165.76 236.68v18.09s.42 1.16 3.07 1.3v.79h-11.26v-.79s2.27 0 3-1.31v-8.86h-8.79v8.88s.42 1.16 3.07 1.3v.79h-11.21v-.79s2.27 0 3-1.31V236.7c-.78-1.29-3-1.31-3-1.31v-.79h11.26v.79c-2.65.14-3.07 1.3-3.07 1.3v7.77h8.79v-7.77c-.78-1.29-3-1.31-3-1.31v-.79h11.26v.79c-2.65.14-3.07 1.3-3.07 1.3zm-18.26.12h.81v18h-.81v-18zm14 0h.81v18h-.81v-18zm37.59 17.98s.7 1.16 3.15 1.3v.79h-11.42v-.79s2.09 0 2.81-1.32V236.7c-.72-1.29-2.81-1.31-2.81-1.31v-.8h14.05s4.59-.18 6.15 3.67a6.37 6.37 0 0 1 .08 3.58c-.87 3.2-5 4.38-5 4.38s1.76.9 4.92 6c0 0 2.49 3.47 4.19 3.94l.71.71-7.54-.05c-.74-.27-4.08-5.41-4.08-5.41-2.79-4.64-5-4.29-5.18-4.25v7.62zm0-18.47a.69.69 0 0 0 0 .38v8.87c.26 0 5.31.33 6.85-3.64a6.14 6.14 0 0 0 .27-2.21c-.57-4.87-7.08-3.39-7.08-3.39zm8.46 18.28h.87c-.65-.72-3-4.4-3-4.4a12.88 12.88 0 0 0-2.75-3.08h-.85a14.91 14.91 0 0 1 2.94 3.38s1.79 2.89 2.75 4.06zm-2.1-18.21c4 4 0 8 0 8a4.89 4.89 0 0 0 2.5-4 4.49 4.49 0 0 0-2.46-3.95zm-10.65.42h.74v18h-.74v-18zm-16.58-.31v8h4.63c.66-.28 1.29-3.31 1.39-3.89h.9v9h-.92c-.08-.49-.73-3.63-1.39-3.76h-4.61v7.58c0 .38.27 1.66 1.49 1.73a16.1 16.1 0 0 0 7.71-.67s.72-.71 1.49-4.07h.88l-.21 6.5H170v-.79a2.88 2.88 0 0 0 2.41-1.32v-18.11a2.88 2.88 0 0 0-2.41-1.32v-.79h19v6.07h-.86c-.77-3.36-1.59-4-1.59-4-3.07-1.34-7.57-.41-8.27-.26zm-4.26.19h.64v18h-.6v-18z"/><path class="cls-2" d="M224.28 238.83l-3.54 9.67h7.45l-3.91-9.67zm.25-2.07h.69l7.19 17.84h-.87l-7-17.84zM220.2 250l-1.7 4.64s.5 1.33 3 1.37v.92h-8.09V256s2.5 0 3.19-1.67l6.49-17.52c-.6-1.26-3-1.29-3-1.29v-.91h7.83l8.23 19.65a3.3 3.3 0 0 0 3.21 1.73v.92h-11.69V256s2.61-.17 3-1.29l-1.9-4.71zm30.95-15.42v.84c-2.51.18-2.65.92-3 1.31v16.68c0 .38.25 1.64 1.29 1.7a18.52 18.52 0 0 0 7.58-.66 14.52 14.52 0 0 0 1.51-4.77l.8-.06-.17 7.25h-19.25V256s2.43-.06 2.93-1.36v-17.66c-.49-1.3-3-1.46-3-1.46v-.88zm-7.24 2.29h.69v17.87h-.69v-17.87zm39.34 4.01c-2.77-6.51-10.06-6.3-10.06-6.3h-13.11v.83s2.62.13 3 1.45v17.73c-.4 1.33-3 1.45-3 1.45v.83h11.76c5.3-.11 9.71-2.65 11.53-6.69a13.13 13.13 0 0 0-.11-9.31zm-4.34.63c-.87-4.09-3.1-5.06-3.1-5.06 2.75.69 4.18 4.35 4.34 8.2.17 4.29-1.25 8.81-4.22 9.76 0 0 3.27-1.83 3.37-8.78a12.58 12.58 0 0 0 0-2 18 18 0 0 0-.36-2.16zm-.67 4s.1 4-1.14 6.24c-1.86 4.11-6.62 3.7-6.62 3.7-2.19-.18-2.22-1.62-2.22-1.62v-17.55a15 15 0 0 1 4.11-.3 5.33 5.33 0 0 1 4.13 2 10 10 0 0 1 1.69 5.4l.06 2.08zm-14.3-8.71h.81v17.9h-.81v-17.9zm-237.4 4.11c-2.68-6.3-9.72-6.1-9.72-6.1H4.15v.81s2.53.12 2.92 1.41v17.17c-.39 1.29-2.92 1.41-2.92 1.41v.81h11.36c5.12-.1 9.38-2.57 11.14-6.48a12.75 12.75 0 0 0-.11-9zm-4.2.61c-.84-4-3-4.9-3-4.9 2.65.67 4 4.21 4.19 7.94.16 4.15-1.2 8.53-4.08 9.45 0 0 3.16-1.77 3.26-8.5a12.17 12.17 0 0 0 0-1.89 17.58 17.58 0 0 0-.35-2.09zm-.65 3.85s.1 3.91-1.1 6c-1.8 4-6.4 3.58-6.4 3.58-2.12-.17-2.15-1.57-2.15-1.57v-17a14.37 14.37 0 0 1 4-.29 5.15 5.15 0 0 1 4 2 9.71 9.71 0 0 1 1.63 5.23l.06 2zm-13.81-8.43h.78v17.33h-.78v-17.33zm28.18-.28v7.72h4.48c.64-.27 1.25-3.21 1.34-3.76h.87v8.74h-.89c-.08-.47-.71-3.52-1.35-3.64h-4.45v7.34c0 .37.26 1.61 1.44 1.68a15.59 15.59 0 0 0 7.47-.65s.7-.69 1.45-3.94h.85l-.21 6.29H28.12v-.77a2.78 2.78 0 0 0 2.33-1.27v-17.5a2.79 2.79 0 0 0-2.33-1.28v-.77h18.37v5.88h-.83c-.75-3.25-1.54-3.83-1.54-3.83-3-1.3-7.33-.4-8-.25zm-4.12.19h.62v17.4h-.62v-17.4zM98.3 239l-3.44 9.36h7.24L98.3 239zm.24-2h.67l7 17.28h-.85L98.54 237zm-4.2 12.78l-1.65 4.49s.48 1.29 2.92 1.33v.89h-7.85v-.89s2.43 0 3.1-1.62l6.31-17c-.58-1.22-3-1.25-3-1.25v-.88h7.61l8 19a3.21 3.21 0 0 0 3.12 1.68v.89h-11.31v-.89s2.53-.17 2.93-1.25l-1.85-4.57zm-40.18 5.93a14.15 14.15 0 0 0 9.15.8 10.3 10.3 0 0 0 5.24-3.34l-.71-1c-5.24 4.58-10.32 1.61-10.32 1.61-7-4.08-4.73-19.25 4.87-17.63 0 0 2.71.23 3 1.69l1 3h.8v-5s-4-2-10.32-.91c-5.13 1-7.33 6-7.33 6a11.45 11.45 0 0 0-1.11 4.52s-.7 7.12 5.76 10.29zm-4.19-9s-.12 5.57 4.8 8.32a9.26 9.26 0 0 1-4.93-5.22 13.46 13.46 0 0 1-.3-6.49c1.28-5.3 5.17-6.72 5.17-6.72a10.91 10.91 0 0 0-4.51 6.88 15.13 15.13 0 0 0-.23 3.23z"/><path class="cls-2" d="M74.12 255.71a14.15 14.15 0 0 0 9.15.8 10.31 10.31 0 0 0 5.24-3.34l-.71-1c-5.24 4.58-10.32 1.61-10.32 1.61-7-4.08-4.73-19.25 4.87-17.63 0 0 2.71.23 3 1.69l1 3h.8v-5s-4-2-10.32-.91c-5.13 1-7.33 6-7.33 6a11.45 11.45 0 0 0-1.11 4.52s-.7 7.12 5.76 10.29zm-4.19-9s-.11 5.57 4.81 8.32a9.26 9.26 0 0 1-4.93-5.22 13.46 13.46 0 0 1-.3-6.49c1.28-5.3 5.17-6.72 5.17-6.72a10.91 10.91 0 0 0-4.51 6.88 15.12 15.12 0 0 0-.23 3.23zm48.27-7.52l12.89 17.31h3.19v-19.34c.64-1.25 3-1.36 3-1.36v-.89h-7.76v.92a3.31 3.31 0 0 1 3 1.28v12.56l-11-14.76h-8v.88a3.9 3.9 0 0 1 2.94 1.27v17.19c-.64 1.25-3 1.36-3 1.36v.89h7.76v-.92a3.31 3.31 0 0 1-3-1.28v-15.11zm13.28 15.13l-12.75-17.23h-.87l12.75 17.23h.87zm.68-203.03c-15.31-47-55.59-45.5-55.59-45.5H4.14v6s14.45.89 16.68 10.48v128c-2.23 9.59-16.68 10.48-16.68 10.48v6h65c29.29-.78 53.62-19.16 63.67-48.32 10.49-34-.63-67.19-.63-67.19zm-24 4.54C103.35 26.3 91 19.33 91 19.33c15.16 5 23.11 31.39 24 59.2.94 30.93-6.89 63.59-23.31 70.43 0 0 18-13.23 18.64-63.39a117.92 117.92 0 0 0-.15-14.13c-.62-8.2-2-15.6-2-15.6zm-3.73 28.68s.56 29.13-6.29 45.07c-10.27 29.67-36.6 26.71-36.6 26.71-12.12-1.26-12.28-11.7-12.28-11.7l-.05-126.53s7.34-2.76 22.72-2.18c0 0 13.82-.7 22.83 14.64 0 0 8.71 14.84 9.32 39l.35 15zm-79-62.85h4.49v129.2h-4.47V21.67z"/><path class="cls-2" d="M265.31 20.78v130.89s2.58 8.41 18.88 9.44v5.75h-69.24v-5.75s13.94-.15 18.73-9.51V87.51h-54v64.24s2.58 8.41 18.88 9.44v5.75h-69.28v-5.75s13.94-.15 18.73-9.51V20.94c-4.79-9.37-18.73-9.51-18.73-9.51V5.67h69.25v5.75c-16.3 1-18.88 9.44-18.88 9.44v56.23h54V20.86c-4.79-9.37-18.73-9.51-18.73-9.51V5.59h69.25v5.75c-16.3 1-18.88 9.44-18.88 9.44zM153 21.67h5v130h-5v-130zm85.85-.07h5v130h-5v-130z"/></svg>