<svg xmlns="http://www.w3.org/2000/svg" width="85" height="48.8"><path fill="#ece9ee" d="M1 19.8h83v28H1z"/><path d="M22.5 10.2c-2.4 2.8-3.9 5.7-4.4 8.7-.3 1.6-.4 2.9-.4 4 0 1.3.1 2.3.4 3.2C20.7 23.4 24 22 28 22s7.3 1.2 9.8 3.5 3.8 5.6 3.8 9.7c0 3.9-1.3 7.1-4 9.5-2.6 2.4-6 3.7-10 3.7-5.6 0-9.6-2-12.2-6-1.2-1.7-2.1-3.8-2.8-6.4-.7-2.5-1-5.1-1-7.8 0-5.8 1.5-11.2 4.5-16S23.6 3.6 29.5.9L31.1 4c-3.3 1.3-6.1 3.4-8.6 6.2zm35.2 0c-2.4 2.8-3.9 5.7-4.4 8.7-.3 1.6-.4 2.9-.4 4 0 1.3.1 2.3.4 3.2 2.6-2.7 5.9-4.1 9.9-4.1s7.3 1.2 9.8 3.5 3.8 5.6 3.8 9.7c0 3.9-1.3 7.1-4 9.5s-6 3.7-10 3.7c-5.6 0-9.6-2-12.2-6-1.2-1.7-2.1-3.8-2.8-6.4-.7-2.5-1-5.1-1-7.8 0-5.8 1.5-11.2 4.5-16S58.8 3.6 64.7.9L66.3 4c-3.3 1.3-6.2 3.4-8.6 6.2z" fill="#432957"/></svg>