<svg id="Layer_1" xmlns="http://www.w3.org/2000/svg" width="478.2" height="572.4"><style>.st0{fill:#d7d7d7}</style><path class="st0" d="M411.7 218.6l-79.2-80L417.6 0h60.6l-2 174.8zM376 266.8l-92-92-136.8 44.8-88 235.2 6.4 6.4 100.8-100.8c-5.6-13.6-2.4-30.4 8.8-41.6 15.2-15.2 40-15.2 55.2 0 15.2 15.2 15.2 40 0 55.2-11.2 11.2-27.2 14.4-41.6 8.8L89.6 484.4l6.4 6.4 235.2-88 44.8-136z"/><path class="st0" d="M176.8 319.6c15.2-15.2 40-15.2 55.2 0 15.2 15.2 15.2 40 0 55.2-11.2 11.2-27.2 14.4-41.6 8.8L89.6 484.4l6.4 6.4 235.2-88L376 266l-92-91.2"/><path class="st0" d="M331.2 403.6L376 266.8l-92-92"/><path class="st0" d="M417.6 271.6c-13.6 13.6-35.2 13.6-48.8 0L280 182.8c-13.6-13.6-13.6-35.2 0-48.8 13.6-13.6 35.2-13.6 48.8 0l88.8 88.8c13.6 12.8 13.6 35.2 0 48.8z"/><path class="st0" d="M417.6 271.6c-13.6 13.6-35.2 13.6-48.8 0L280 182.8c-13.6-13.6-13.6-35.2 0-48.8M49 572.4h-1c-26.4 0-48-20-48-46.4s21.6-47.2 48-47.2c6.4 0 12 5.6 12 12s-5.6 12-12 12c-13.6 0-24 9.6-24 22.4 0 12.8 10.4 22.4 24 22.4h1c6.4 0 12 5.6 12 12s-5.6 12.8-12 12.8z"/><circle class="st0" cx="57.6" cy="491.6" r="16.8"/></svg>