<svg id="Layer_1" xmlns="http://www.w3.org/2000/svg" width="85" height="64"><style/><path fill="#fffae5" d="M1 1h83v28H1z"/><path d="M22.5 25.4c-2.4 2.8-3.9 5.7-4.4 8.7-.3 1.6-.4 2.9-.4 4 0 1.3.1 2.3.4 3.2 2.6-2.7 5.9-4.1 9.9-4.1s7.3 1.2 9.8 3.5c2.5 2.3 3.8 5.6 3.8 9.7 0 3.9-1.3 7.1-4 9.5-2.6 2.4-6 3.7-10 3.7-5.6 0-9.6-2-12.2-6-1.2-1.7-2.1-3.8-2.8-6.4-.7-2.5-1-5.1-1-7.8 0-5.8 1.5-11.2 4.5-16s7.5-8.6 13.4-11.3l1.6 3.1c-3.3 1.3-6.1 3.4-8.6 6.2zm35.2 0c-2.4 2.8-3.9 5.7-4.4 8.7-.3 1.6-.4 2.9-.4 4 0 1.3.1 2.3.4 3.2 2.6-2.7 5.9-4.1 9.9-4.1s7.3 1.2 9.8 3.5c2.5 2.3 3.8 5.6 3.8 9.7 0 3.9-1.3 7.1-4 9.5s-6 3.7-10 3.7c-5.6 0-9.6-2-12.2-6-1.2-1.7-2.1-3.8-2.8-6.4-.7-2.5-1-5.1-1-7.8 0-5.8 1.5-11.2 4.5-16 3-4.8 7.5-8.6 13.4-11.3l1.6 3.1c-3.3 1.3-6.2 3.4-8.6 6.2z" fill="#fc0"/></svg>