<svg id="Layer_1" data-name="Layer 1" xmlns="http://www.w3.org/2000/svg" viewBox="0 0 51 49.58"><defs><style>.cls-1{fill:#333}</style></defs><path class="cls-1" d="M34.8 1.79H16.2a13.72 13.72 0 0 0-13.7 13.7v18.6a13.72 13.72 0 0 0 13.7 13.7h18.6a13.72 13.72 0 0 0 13.7-13.7v-18.6a13.72 13.72 0 0 0-13.7-13.7zm9.08 32.3a9.08 9.08 0 0 1-9.08 9.08H16.2a9.08 9.08 0 0 1-9.08-9.08v-18.6a9.08 9.08 0 0 1 9.08-9.07h18.6a9.08 9.08 0 0 1 9.08 9.08v18.59z"/><path class="cls-1" d="M25.5 12.89a11.9 11.9 0 1 0 11.9 11.9 11.91 11.91 0 0 0-11.9-11.9zm0 19.17a7.27 7.27 0 1 1 7.27-7.27 7.27 7.27 0 0 1-7.27 7.27z"/><circle class="cls-1" cx="37.42" cy="12.98" r="2.85"/></svg>