<svg data-name="Layer 1" xmlns="http://www.w3.org/2000/svg" viewBox="0 0 51 49.58"><path d="M51 9a20.89 20.89 0 0 1-6 1.65 10.51 10.51 0 0 0 4.6-5.78 21 21 0 0 1-6.64 2.54 10.47 10.47 0 0 0-17.82 9.54A29.68 29.68 0 0 1 3.57 6 10.47 10.47 0 0 0 6.8 20a10.4 10.4 0 0 1-4.74-1.31v.13A10.46 10.46 0 0 0 10.45 29a10.45 10.45 0 0 1-4.72.18 10.47 10.47 0 0 0 9.77 7.26 21 21 0 0 1-13 4.47A20.81 20.81 0 0 1 0 40.8a29.59 29.59 0 0 0 16 4.7c19.23 0 29.75-15.94 29.75-29.75V14.4A21.22 21.22 0 0 0 51 9zm0 0" fill="#1da1f2"/></svg>